<?xml version="1.0" encoding="UTF-8"?>
<svg id="Layer_1" data-name="Layer 1" xmlns="http://www.w3.org/2000/svg" viewBox="0 0 2816 1536">
  <defs>
    <style>
      .cls-1 {
        fill: #4bd682;
      }

      .cls-2 {
        fill: #fff;
      }

      .cls-3 {
        fill: #49d781;
      }
    </style>
  </defs>
  <path class="cls-2" d="M1231.89,693.15c-15.18-.14-26.17-12.94-26.17-27.1v-90.01c-.02-20.81-9.04-37.85-23.61-52.19l-20.51-20.18,24.77-25.25c12.52-12.76,19.22-28.21,19.23-46.42v-89.95c0-16.44,11.95-28.88,28.36-28.42l72.08-.08.09-55.74h-80.39c-41.38,2.12-76.18,35.01-76.56,76.92l-.84,91.27c-.65,11.96-5.17,22.58-13.45,30.99l-45.81,46.53,48.35,49.07c8.46,8.59,11.55,21.28,10.97,33.39l.86,87.36c3.04,42.38,37.25,73.49,79,75.88l77.62.35.16-55.73-74.15-.69ZM1628.93,267.26c-11.9-5.85-22.91-9.25-34.94-9.24l-80.81.02-.03,55.35,70.19.07,45.59-46.2ZM1395.27,625.71l328.4-328.7-40.04-40.05-288.61,288.94-92.77-92.96-39.87,40.69,132.88,132.08ZM1514.03,749.68l75.66-.52c45.21-.31,80.87-36.89,81.01-82.12l.27-82.97c.05-15.25,5.36-26.81,15.89-37.37l43.07-43.16-43.43-44.06c-7.49-7.6-14.27-16.58-14.68-27.59l-1.38-37-54.71,55.32c1.53,7.07,4.13,14.04,9.08,19.05l32.9,33.34-29.74,31.22c-8.55,8.97-13.91,21.33-13.98,34.09l-.48,97.85c-.08,16.13-12.1,27.66-27.97,27.68l-71.92.09.41,56.13ZM654.87,1238.39c-10.15-.1-15.97-9.48-16.01-18.32l-.3-64.46c-.05-11.01-3.61-21.2-11.2-28.96l-18.56-19,17.06-17.67c8.63-8.94,12.58-19.39,12.64-32.02l.3-61.99c.05-11.17,7.79-20.17,19.16-20.24l49.56-.27-.11-38.96-55.46.3c-29.8.16-52.7,26.37-52.89,55.8l-.4,61.46c-.05,7.57-1.95,14.03-7.23,19.39l-33.59,34.13,32.03,32.52c6.11,6.21,9,12.88,9,21.93l.02,57.54c.01,33.44,25.62,58.85,59.16,58.72l49.52-.18-.31-39.21-52.37-.49ZM925.23,945.89c-9.33-5.65-16.64-8.98-25.3-9.04l-57.37-.41.03,39.12h54.68s27.96-29.67,27.96-29.67ZM767.55,1192.92l200.02-200.82,25.03-26-28.16-27.28-196.3,198.09-64.12-63.71-27.36,28.42,90.89,91.3ZM1748.95,1028.05c16.2-2.93,22.78-17.25,20.16-30.59-2.84-14.44-16.09-21.7-31.36-19.58-15.52,2.16-23.51,16.39-20.78,30.69s16.27,22.33,31.98,19.48ZM1146.64,1084.82l31.36-.27.02-34.59-31.18-.62c-.92-8.05-.48-16.45,3.12-23.46,5.13-10.01,16.63-11.39,27.62-10l.31-35.91-32.65,1.59c-33.7,7.21-43.92,34.4-42.8,67.93l-19.88.51-.03,34.04,20.03,1.33.06,139.07,43.55.11.48-139.73ZM1973.92,1182.98c24.87-52.38,3.76-123.85-53.68-134.78-27.89-5.31-52.66,2.42-72,22.88l-.8-81.3-42.88.24.05,234.76,42.89-.54.87-22.92c7.57,7.26,13.57,14.61,23.2,19.08,38.36,17.82,83.52,2.27,102.35-37.41ZM2058.17,1223.73l-.06-233.72-43.45-.11.05,234.46,43.46-.63ZM1691.45,1187.65l-28.93-.48c-6.65-.11-10.74-8.46-10.76-15.3l-.27-86.61,39.72-.33.3-35.04-39.44-.49-.97-44.96-42.47.13-.65,44.59-20.86.59-.13,35.27,21.41.41.59,95.84c.14,23.2,16.69,39.57,39.39,42.38l43.13.91-.05-36.91ZM842.67,1278.42l51.3-.42c33.04-.27,56.52-26.81,56.7-59.31l.33-58.72c.04-6.85,2.61-13.23,7.12-17.88l33.89-34.87-37.16-38.19c-6.91-7.1-3.36-18.38-4.53-28.65l-34.01,34.08c-3.05,3.06,1.89,9.19,3.87,11.23l21.11,21.81-17.68,18.1c-8.52,8.72-12.64,19.96-12.67,32.38l-.17,62.07c-.03,11.14-7.59,18.72-18.73,18.7l-49.39-.1.03,39.77ZM1330.9,1224.96l41.94-.39-.67-174.64h-42.04c-.62,7.8,1.45,14.17-1.52,21.56-8.32-8.61-15.04-15.12-24.95-19.04-37.64-14.89-80.2-.65-99.17,36.13-15.72,30.48-15.45,67.95.67,97.97,19.78,36.84,62.37,50.92,99.89,34.31,10.08-4.46,16.73-11.74,24.54-19.52l1.32,23.63ZM1454.9,1169.8c-10.51-20.37-10.33-45.37-.45-64.91,7.8-15.42,22.2-22.43,38.39-21.5,14.36.83,26.45,10.15,32.67,24.98l45.18-.41c-10.32-47.71-53.14-68.04-100.56-59.52-57.68,10.36-79.51,74.79-60.12,127.48,12.92,35.11,45.73,52.33,82,51.95,38.4-.41,71.12-23.09,78.57-62.21l-44.81.22c-5.19,15.35-18.34,24.06-32.93,24.84s-30.05-5.58-37.95-20.91ZM2178.42,1191.43c-24.83,1.33-44.44-15.31-47.07-40.65l128.33-.49-.56-33.84c-3.5-30.44-23.1-55.37-52.56-65.01-49.4-16.16-103.12,6.27-115.03,59.77-4.9,22.01-4.38,44.48,4.21,65.17,14.26,34.34,47.59,52.55,84.31,51.36s66.39-22.43,76.01-57.29l-45.49.27c-6.28,12.14-17.46,19.93-32.15,20.71ZM1764.27,1223.83l-.06-173.88h-42.4s-.28,174.31-.28,174.31l42.74-.44Z"/>
  <path class="cls-3" d="M1231.89,693.15l74.15.69-.16,55.73-77.62-.35c-41.75-2.39-75.96-33.5-79-75.88l-.86-87.36c.58-12.11-2.51-24.8-10.97-33.39l-48.35-49.07,45.81-46.53c8.28-8.41,12.8-19.03,13.45-30.99l.84-91.27c.38-41.91,35.18-74.8,76.56-76.91h80.39s-.09,55.73-.09,55.73l-72.08.08c-16.4-.46-28.35,11.98-28.35,28.42v89.95c0,18.21-6.72,33.66-19.23,46.42l-24.77,25.25,20.51,20.18c14.57,14.33,23.6,31.37,23.6,52.19v90.01c.01,14.16,11,26.96,26.19,27.1Z"/>
  <polygon class="cls-3" points="1395.27 625.71 1262.39 493.63 1302.26 452.94 1395.03 545.9 1683.64 256.97 1723.67 297.02 1395.27 625.71"/>
  <path class="cls-3" d="M1514.03,749.68l-.41-56.13,71.92-.09c15.88-.02,27.89-11.55,27.97-27.68l.48-97.85c.06-12.77,5.43-25.12,13.98-34.09l29.74-31.22-32.9-33.34c-4.95-5.01-7.55-11.98-9.08-19.05l54.71-55.32,1.38,37c.41,11.01,7.19,19.99,14.68,27.59l43.43,44.06-43.07,43.16c-10.53,10.56-15.84,22.11-15.89,37.37l-.27,82.97c-.15,45.23-35.81,81.81-81.01,82.12l-75.66.52Z"/>
  <path class="cls-1" d="M1973.92,1182.98c-18.84,39.68-64,55.23-102.35,37.41-9.62-4.47-15.63-11.82-23.2-19.08l-.87,22.92-42.89.54-.05-234.76,42.88-.24.8,81.3c19.34-20.46,44.11-28.19,72-22.88,57.43,10.93,78.54,82.4,53.68,134.78ZM1924.83,1177.41c21.75-22.6,20.95-59.72-.51-81.4-10.63-10.73-25.19-13.9-39.86-11.08-11.08,2.13-22.95,9.94-29.63,22.12-9.97,18.19-9.57,41.21.58,59.26,7.11,12.64,19.01,20.67,31.28,22.64,13.44,2.16,27.57-.54,38.15-11.53Z"/>
  <path class="cls-1" d="M1330.9,1224.96l-1.32-23.63c-7.81,7.78-14.46,15.05-24.54,19.52-37.52,16.61-80.11,2.53-99.89-34.31-16.11-30.02-16.38-67.49-.67-97.97,18.96-36.77,61.53-51.01,99.17-36.13,9.91,3.92,16.63,10.44,24.95,19.04,2.97-7.38.91-13.76,1.52-21.55h42.04s.67,174.63.67,174.63l-41.94.39ZM1319.97,1170.52c13.95-20.07,13.51-48.7-.23-67.6-9.07-12.47-21.48-18.92-34.8-19.2-14.2-.3-27.35,4.95-36.53,17-15.11,19.83-15.67,47.85-2.36,69.12,8.35,13.33,22.47,19.96,36.99,19.95,13.82-.02,27.61-5.86,36.93-19.26Z"/>
  <path class="cls-1" d="M2178.42,1191.43c14.69-.79,25.88-8.57,32.15-20.71l45.49-.27c-9.62,34.86-40,56.12-76.01,57.29s-70.05-17.02-84.31-51.36c-8.59-20.69-9.11-43.16-4.21-65.17,11.91-53.5,65.62-75.93,115.03-59.77,29.46,9.64,49.06,34.57,52.56,65.01l.56,33.84-128.33.49c2.63,25.34,22.24,41.98,47.07,40.65ZM2216.74,1119.56c-1.39-25.25-21.57-40.13-45.14-37.97-20.57.44-36.98,17.59-39.58,37.96h84.72Z"/>
  <path class="cls-1" d="M654.87,1238.39l52.37.49.31,39.21-49.52.18c-33.54.13-59.15-25.29-59.16-58.72l-.02-57.54c0-9.05-2.89-15.72-9-21.93l-32.03-32.52,33.59-34.13c5.28-5.36,7.18-11.82,7.23-19.39l.4-61.46c.19-29.43,23.09-55.64,52.89-55.8l55.46-.3.11,38.96-49.56.27c-11.37.06-19.1,9.07-19.16,20.24l-.3,61.99c-.06,12.63-4.01,23.08-12.64,32.02l-17.06,17.67,18.56,19c7.59,7.76,11.15,17.95,11.2,28.96l.3,64.46c.04,8.85,5.87,18.23,16.01,18.32Z"/>
  <polygon class="cls-1" points="767.55 1192.92 676.66 1101.62 704.02 1073.2 768.14 1136.91 964.44 938.82 992.6 966.1 967.57 992.11 767.55 1192.92"/>
  <path class="cls-1" d="M1454.9,1169.8c7.91,15.33,22.77,21.73,37.95,20.91s27.74-9.49,32.93-24.84l44.81-.22c-7.45,39.12-40.18,61.8-78.57,62.21-36.27.39-69.08-16.84-82-51.95-19.39-52.68,2.44-117.11,60.12-127.48,47.41-8.52,90.24,11.81,100.56,59.52l-45.18.41c-6.22-14.83-18.31-24.15-32.67-24.98-16.19-.93-30.6,6.08-38.39,21.5-9.88,19.55-10.06,44.54.45,64.91Z"/>
  <path class="cls-1" d="M1146.64,1084.82l-.48,139.73-43.55-.11-.06-139.07-20.03-1.33.03-34.04,19.88-.51c-1.11-33.53,9.11-60.72,42.8-67.93l32.65-1.59-.31,35.91c-10.99-1.38-22.49,0-27.62,10-3.6,7.02-4.04,15.41-3.12,23.46l31.18.62-.02,34.59-31.36.27Z"/>
  <path class="cls-1" d="M1691.45,1187.65l.05,36.91-43.13-.91c-22.69-2.81-39.24-19.18-39.39-42.38l-.59-95.84-21.41-.41.13-35.27,20.86-.59.65-44.59,42.47-.13.97,44.96,39.44.49-.3,35.04-39.72.33.27,86.61c.02,6.84,4.11,15.19,10.76,15.3l28.93.48Z"/>
  <path class="cls-1" d="M842.67,1278.42l-.03-39.77,49.39.1c11.14.02,18.7-7.56,18.73-18.7l.17-62.07c.03-12.42,4.15-23.66,12.67-32.38l17.68-18.1-21.11-21.81c-1.98-2.05-6.92-8.17-3.87-11.23l34.01-34.08c1.17,10.27-2.38,21.55,4.53,28.65l37.16,38.19-33.89,34.87c-4.52,4.65-7.08,11.02-7.12,17.88l-.33,58.72c-.18,32.5-23.66,59.04-56.7,59.31l-51.3.42Z"/>
  <polygon class="cls-1" points="2058.17 1223.73 2014.7 1224.36 2014.65 989.9 2058.1 990.01 2058.17 1223.73"/>
  <polygon class="cls-3" points="1764.27 1223.83 1721.54 1224.26 1721.81 1049.95 1764.21 1049.95 1764.27 1223.83"/>
  <path class="cls-3" d="M1628.93,267.26l-45.59,46.2-70.19-.07.03-55.35,80.81-.02c12.02,0,23.04,3.4,34.94,9.24Z"/>
  <path class="cls-1" d="M925.23,945.89l-27.96,29.68h-54.68s-.03-39.13-.03-39.13l57.37.41c8.65.06,15.96,3.39,25.3,9.04Z"/>
  <path class="cls-1" d="M1748.95,1028.05c-15.71,2.84-29.34-5.65-31.98-19.48s5.27-28.53,20.78-30.69c15.28-2.13,28.53,5.14,31.36,19.58,2.62,13.34-3.96,27.66-20.16,30.59Z"/>
</svg>