<?xml version="1.0" encoding="UTF-8"?>
<svg id="Layer_1" data-name="Layer 1" xmlns="http://www.w3.org/2000/svg" viewBox="528 906 1760 402">
  <defs>
    <style>
      .cls-1 {
        fill: #4bd682;
      }

      .cls-3 {
        fill: #49d781;
      }
    </style>
  </defs>
  
  <path class="cls-3" d="M1231.89,693.15l74.15.69-.16,55.73-77.62-.35c-41.75-2.39-75.96-33.5-79-75.88l-.86-87.36c.58-12.11-2.51-24.8-10.97-33.39l-48.35-49.07,45.81-46.53c8.28-8.41,12.8-19.03,13.45-30.99l.84-91.27c.38-41.91,35.18-74.8,76.56-76.91h80.39s-.09,55.73-.09,55.73l-72.08.08c-16.4-.46-28.35,11.98-28.35,28.42v89.95c0,18.21-6.72,33.66-19.23,46.42l-24.77,25.25,20.51,20.18c14.57,14.33,23.6,31.37,23.6,52.19v90.01c.01,14.16,11,26.96,26.19,27.1Z"/>
  <polygon class="cls-3" points="1395.27 625.71 1262.39 493.63 1302.26 452.94 1395.03 545.9 1683.64 256.97 1723.67 297.02 1395.27 625.71"/>
  <path class="cls-3" d="M1514.03,749.68l-.41-56.13,71.92-.09c15.88-.02,27.89-11.55,27.97-27.68l.48-97.85c.06-12.77,5.43-25.12,13.98-34.09l29.74-31.22-32.9-33.34c-4.95-5.01-7.55-11.98-9.08-19.05l54.71-55.32,1.38,37c.41,11.01,7.19,19.99,14.68,27.59l43.43,44.06-43.07,43.16c-10.53,10.56-15.84,22.11-15.89,37.37l-.27,82.97c-.15,45.23-35.81,81.81-81.01,82.12l-75.66.52Z"/>
  <path class="cls-1" d="M1973.92,1182.98c-18.84,39.68-64,55.23-102.35,37.41-9.62-4.47-15.63-11.82-23.2-19.08l-.87,22.92-42.89.54-.05-234.76,42.88-.24.8,81.3c19.34-20.46,44.11-28.19,72-22.88,57.43,10.93,78.54,82.4,53.68,134.78ZM1924.83,1177.41c21.75-22.6,20.95-59.72-.51-81.4-10.63-10.73-25.19-13.9-39.86-11.08-11.08,2.13-22.95,9.94-29.63,22.12-9.97,18.19-9.57,41.21.58,59.26,7.11,12.64,19.01,20.67,31.28,22.64,13.44,2.16,27.57-.54,38.15-11.53Z"/>
  <path class="cls-1" d="M1330.9,1224.96l-1.32-23.63c-7.81,7.78-14.46,15.05-24.54,19.52-37.52,16.61-80.11,2.53-99.89-34.31-16.11-30.02-16.38-67.49-.67-97.97,18.96-36.77,61.53-51.01,99.17-36.13,9.91,3.92,16.63,10.44,24.95,19.04,2.97-7.38.91-13.76,1.52-21.55h42.04s.67,174.63.67,174.63l-41.94.39ZM1319.97,1170.52c13.95-20.07,13.51-48.7-.23-67.6-9.07-12.47-21.48-18.92-34.8-19.2-14.2-.3-27.35,4.95-36.53,17-15.11,19.83-15.67,47.85-2.36,69.12,8.35,13.33,22.47,19.96,36.99,19.95,13.82-.02,27.61-5.86,36.93-19.26Z"/>
  <path class="cls-1" d="M2178.42,1191.43c14.69-.79,25.88-8.57,32.15-20.71l45.49-.27c-9.62,34.86-40,56.12-76.01,57.29s-70.05-17.02-84.31-51.36c-8.59-20.69-9.11-43.16-4.21-65.17,11.91-53.5,65.62-75.93,115.03-59.77,29.46,9.64,49.06,34.57,52.56,65.01l.56,33.84-128.33.49c2.63,25.34,22.24,41.98,47.07,40.65ZM2216.74,1119.56c-1.39-25.25-21.57-40.13-45.14-37.97-20.57.44-36.98,17.59-39.58,37.96h84.72Z"/>
  <path class="cls-1" d="M654.87,1238.39l52.37.49.31,39.21-49.52.18c-33.54.13-59.15-25.29-59.16-58.72l-.02-57.54c0-9.05-2.89-15.72-9-21.93l-32.03-32.52,33.59-34.13c5.28-5.36,7.18-11.82,7.23-19.39l.4-61.46c.19-29.43,23.09-55.64,52.89-55.8l55.46-.3.11,38.96-49.56.27c-11.37.06-19.1,9.07-19.16,20.24l-.3,61.99c-.06,12.63-4.01,23.08-12.64,32.02l-17.06,17.67,18.56,19c7.59,7.76,11.15,17.95,11.2,28.96l.3,64.46c.04,8.85,5.87,18.23,16.01,18.32Z"/>
  <polygon class="cls-1" points="767.55 1192.92 676.66 1101.62 704.02 1073.2 768.14 1136.91 964.44 938.82 992.6 966.1 967.57 992.11 767.55 1192.92"/>
  <path class="cls-1" d="M1454.9,1169.8c7.91,15.33,22.77,21.73,37.95,20.91s27.74-9.49,32.93-24.84l44.81-.22c-7.45,39.12-40.18,61.8-78.57,62.21-36.27.39-69.08-16.84-82-51.95-19.39-52.68,2.44-117.11,60.12-127.48,47.41-8.52,90.24,11.81,100.56,59.52l-45.18.41c-6.22-14.83-18.31-24.15-32.67-24.98-16.19-.93-30.6,6.08-38.39,21.5-9.88,19.55-10.06,44.54.45,64.91Z"/>
  <path class="cls-1" d="M1146.64,1084.82l-.48,139.73-43.55-.11-.06-139.07-20.03-1.33.03-34.04,19.88-.51c-1.11-33.53,9.11-60.72,42.8-67.93l32.65-1.59-.31,35.91c-10.99-1.38-22.49,0-27.62,10-3.6,7.02-4.04,15.41-3.12,23.46l31.18.62-.02,34.59-31.36.27Z"/>
  <path class="cls-1" d="M1691.45,1187.65l.05,36.91-43.13-.91c-22.69-2.81-39.24-19.18-39.39-42.38l-.59-95.84-21.41-.41.13-35.27,20.86-.59.65-44.59,42.47-.13.97,44.96,39.44.49-.3,35.04-39.72.33.27,86.61c.02,6.84,4.11,15.19,10.76,15.3l28.93.48Z"/>
  <path class="cls-1" d="M842.67,1278.42l-.03-39.77,49.39.1c11.14.02,18.7-7.56,18.73-18.7l.17-62.07c.03-12.42,4.15-23.66,12.67-32.38l17.68-18.1-21.11-21.81c-1.98-2.05-6.92-8.17-3.87-11.23l34.01-34.08c1.17,10.27-2.38,21.55,4.53,28.65l37.16,38.19-33.89,34.87c-4.52,4.65-7.08,11.02-7.12,17.88l-.33,58.72c-.18,32.5-23.66,59.04-56.7,59.31l-51.3.42Z"/>
  <polygon class="cls-1" points="2058.17 1223.73 2014.7 1224.36 2014.65 989.9 2058.1 990.01 2058.17 1223.73"/>
  <polygon class="cls-3" points="1764.27 1223.83 1721.54 1224.26 1721.81 1049.95 1764.21 1049.95 1764.27 1223.83"/>
  <path class="cls-3" d="M1628.93,267.26l-45.59,46.2-70.19-.07.03-55.35,80.81-.02c12.02,0,23.04,3.4,34.94,9.24Z"/>
  <path class="cls-1" d="M925.23,945.89l-27.96,29.68h-54.68s-.03-39.13-.03-39.13l57.37.41c8.65.06,15.96,3.39,25.3,9.04Z"/>
  <path class="cls-1" d="M1748.95,1028.05c-15.71,2.84-29.34-5.65-31.98-19.48s5.27-28.53,20.78-30.69c15.28-2.13,28.53,5.14,31.36,19.58,2.62,13.34-3.96,27.66-20.16,30.59Z"/>
</svg>